# Blender v2.81 (sub 16) OBJ File: 'marble-course-pivot-point-changes.blend'
# www.blender.org
mtllib red_block.mtl
o red_block
v 1.197812 -3.516876 1.309237
v 1.079976 2.616747 -1.061688
v 1.080127 2.641462 1.243210
v 1.197660 -3.541591 -0.995660
v -1.306152 2.595867 1.243856
v -1.188619 -3.587186 -0.995014
v -1.188468 -3.562470 1.309883
v -1.306304 2.571152 -1.061042
v -1.188468 -3.562470 1.309883
v 1.197660 -3.541591 -0.995660
v 1.197812 -3.516876 1.309237
v -1.188619 -3.587186 -0.995014
v -1.306304 2.571152 -1.061042
v 1.080127 2.641462 1.243210
v 1.079976 2.616747 -1.061688
v -1.306152 2.595867 1.243856
v -1.306152 2.595867 1.243856
v 1.197812 -3.516876 1.309237
v 1.080127 2.641462 1.243210
v -1.188468 -3.562470 1.309883
v -1.188619 -3.587186 -0.995014
v 1.079976 2.616747 -1.061688
v 1.197660 -3.541591 -0.995660
v -1.306304 2.571152 -1.061042
vt 0.300000 0.500000
vt 0.000000 1.000000
vt 0.000000 0.500000
vt 0.300000 1.000000
vt 0.966667 0.500000
vt 0.666667 1.000000
vt 0.666667 0.500000
vt 0.966667 1.000000
vt 0.633333 0.000000
vt 0.333333 0.500000
vt 0.333333 0.000000
vt 0.633333 0.500000
vt 0.966667 0.000000
vt 0.666667 0.500000
vt 0.666667 0.000000
vt 0.966667 0.500000
vt 0.633333 0.500000
vt 0.333333 1.000000
vt 0.333333 0.500000
vt 0.633333 1.000000
vt 0.300000 0.000000
vt 0.000000 0.500000
vt 0.000000 0.000000
vt 0.300000 0.500000
vn 0.9998 0.0191 -0.0003
vn -0.9998 -0.0191 0.0003
vn 0.0191 -0.9998 0.0107
vn -0.0191 0.9998 -0.0107
vn 0.0001 0.0107 0.9999
vn -0.0001 -0.0107 -0.9999
usemtl StandardFF6F5D
s 1
f 1/1/1 2/2/1 3/3/1
f 1/1/1 4/4/1 2/2/1
f 5/5/2 6/6/2 7/7/2
f 5/5/2 8/8/2 6/6/2
f 9/9/3 10/10/3 11/11/3
f 9/9/3 12/12/3 10/10/3
f 13/13/4 14/14/4 15/15/4
f 13/13/4 16/16/4 14/14/4
f 17/17/5 18/18/5 19/19/5
f 17/17/5 20/20/5 18/18/5
f 21/21/6 22/22/6 23/23/6
f 21/21/6 24/24/6 22/22/6
